HIERARCHY
ROOT ROOT
{
	OFFSET 0.000000 56.020000 -5.659234
	CHANNELS 6 Xposition Yposition Zposition Xrotation Yrotation Zrotation 
	JOINT C_spine0001_bind_JNT
	{
		OFFSET 0.000000 1.618999 0.000000
		CHANNELS 3 Xrotation Yrotation Zrotation
		JOINT C_spine0002_bind_JNT
		{
			OFFSET 0.000000 4.942001 0.000001
			CHANNELS 3 Xrotation Yrotation Zrotation
			JOINT C_spine0003_bind_JNT
			{
				OFFSET 0.000000 4.942001 -0.000000
				CHANNELS 3 Xrotation Yrotation Zrotation
				JOINT C_neck0001_bind_JNT
				{
					OFFSET 0.000000 17.026009 -0.000000
					CHANNELS 3 Xrotation Yrotation Zrotation
					JOINT C_neck0002_bind_JNT
					{
						OFFSET 0.000000 3.249985 0.000000
						CHANNELS 3 Xrotation Yrotation Zrotation
						JOINT C_head_bind_JNT
						{
							OFFSET 0.000000 5.278008 0.000000
							CHANNELS 3 Xrotation Yrotation Zrotation
							End Site
							{
								OFFSET 0.000000 0.000000 0.000000
							}
						}
					}
				}
				JOINT L_clavicle_bind_JNT
				{
					OFFSET 4.590000 12.067001 0.834000
					CHANNELS 3 Xrotation Yrotation Zrotation
					JOINT L_armUpper0001_bind_JNT
					{
						OFFSET 7.812635 0.512001 -3.452945
						CHANNELS 3 Xrotation Yrotation Zrotation
						JOINT L_armLower0001_bind_JNT
						{
							OFFSET 15.265892 -6.552116 -0.058157
							CHANNELS 3 Xrotation Yrotation Zrotation
							JOINT L_hand0001_bind_JNT
							{
								OFFSET 14.747667 -6.369995 5.049225
								CHANNELS 3 Xrotation Yrotation Zrotation
								End Site
								{
									OFFSET 0.000000 0.000000 0.000000
								}
							}
						}
					}
				}
				JOINT R_clavicle_bind_JNT
				{
					OFFSET -4.590000 12.067001 0.834000
					CHANNELS 3 Xrotation Yrotation Zrotation
					JOINT R_armUpper0001_bind_JNT
					{
						OFFSET -7.812635 0.512001 -3.452945
						CHANNELS 3 Xrotation Yrotation Zrotation
						JOINT R_armLower0001_bind_JNT
						{
							OFFSET -15.265890 -6.552124 -0.058160
							CHANNELS 3 Xrotation Yrotation Zrotation
							JOINT R_hand0001_bind_JNT
							{
								OFFSET -14.746784 -6.369629 5.048937
								CHANNELS 3 Xrotation Yrotation Zrotation
								End Site
								{
									OFFSET 0.000000 0.000000 0.000000
								}
							}
						}
					}
				}
			}
		}
	}
	JOINT C_pelvis0001_bind_JNT
	{
		OFFSET -0.000000 0.000000 0.000000
		CHANNELS 3 Xrotation Yrotation Zrotation
		JOINT L_legUpper0001_bind_JNT
		{
			OFFSET 6.599999 -6.027000 0.539000
			CHANNELS 3 Xrotation Yrotation Zrotation
			JOINT L_legLower0001_bind_JNT
			{
				OFFSET -0.140713 -19.187443 0.040261
				CHANNELS 3 Xrotation Yrotation Zrotation
				JOINT L_foot0001_bind_JNT
				{
					OFFSET -0.132215 -18.028637 -1.138370
					CHANNELS 3 Xrotation Yrotation Zrotation
					JOINT L_foot0002_bind_JNT
					{
						OFFSET 0.007014 -4.693133 9.886524
						CHANNELS 3 Xrotation Yrotation Zrotation
						End Site
						{
							OFFSET 0.000000 0.000000 0.000000
						}
					}
				}
			}
		}
		JOINT R_legUpper0001_bind_JNT
		{
			OFFSET -6.599999 -6.027000 0.539000
			CHANNELS 3 Xrotation Yrotation Zrotation
			JOINT R_legLower0001_bind_JNT
			{
				OFFSET 0.140710 -19.187164 0.040550
				CHANNELS 3 Xrotation Yrotation Zrotation
				JOINT R_foot0001_bind_JNT
				{
					OFFSET 0.132215 -18.028633 -1.138362
					CHANNELS 3 Xrotation Yrotation Zrotation
					JOINT R_foot0002_bind_JNT
					{
						OFFSET -0.007014 -4.693128 9.886505
						CHANNELS 3 Xrotation Yrotation Zrotation
						End Site
						{
							OFFSET 0.000000 0.000000 0.000000
						}
					}
				}
			}
		}
	}
}
MOTION
Frames: 10
Frame Time: 0.033333
16.227463 48.636150 45.511574 0.076360 23.031719 -0.082952 26.629848 -2.381241 -15.480232 -0.894517 2.690207 -0.670705 11.783492 2.487723 -4.742388 22.477322 -8.573236 8.885221 -1.265259 -0.922320 -0.999482 7.479869 -18.703091 12.860924 -18.115429 10.225183 1.782101 -68.093376 -29.321733 1.931968 -48.450275 -61.104160 -37.831711 5.943122 -20.107990 15.236032 -9.672541 -9.486051 -11.824706 -6.583724 -4.584898 43.814133 15.458422 -9.486870 -1.303743 3.845732 16.901539 21.918457 16.192862 -2.979584 -15.456471 -50.030117 5.141471 14.250540 15.593102 -2.168344 5.255669 -9.242406 -20.687780 2.783962 -4.891483 -2.169066 1.031891 -26.089542 -1.398787 5.669033 46.719124 4.053366 1.883430 -14.584563 -2.472000 7.500555 -12.993898 1.060687 -1.707959
16.609375 48.581112 46.378231 0.081670 22.437744 -0.085918 25.601549 -1.344816 -16.523220 -1.161557 2.754864 -0.744986 11.702981 2.672977 -4.637510 22.560728 -9.113540 9.091253 -1.212316 -0.941974 -0.845658 7.402958 -19.303196 13.132467 -18.163532 10.288333 1.698299 -68.376961 -26.856279 0.984623 -48.503994 -62.401184 -37.361153 6.206113 -19.804449 15.588158 -10.119435 -9.398742 -11.905297 -6.232848 -5.091395 42.816929 15.408150 -11.202790 -1.974093 3.428441 16.803518 20.174831 15.274323 -2.138902 -16.227713 -48.607750 4.783059 14.424189 17.375557 -2.272974 6.044641 -11.192397 -21.034063 2.775317 -5.038826 -2.348366 0.905136 -27.445856 -2.233128 4.292410 49.487854 4.421039 1.991469 -15.058585 -1.873504 7.734624 -13.229767 1.082376 -1.405407
16.933344 48.468262 47.146095 0.079295 21.896505 -0.080896 24.489862 -0.464520 -17.247366 -1.089959 2.881449 -0.761125 11.422483 2.910270 -4.823904 22.660610 -9.432828 9.436700 -1.206222 -0.913584 -1.025051 7.476270 -19.734280 13.827667 -18.274988 10.343945 1.801804 -68.501778 -24.866335 0.823112 -48.616066 -62.524410 -37.024025 6.256357 -20.170204 15.638156 -10.496727 -9.549308 -11.686199 -6.306045 -4.965127 41.269314 15.639604 -12.887645 -1.831926 3.065567 16.685471 18.293026 14.348016 -1.255719 -16.577101 -47.191090 4.570481 14.573879 18.616287 -2.462074 6.249383 -12.655413 -21.540728 2.903040 -5.052357 -2.495353 0.803053 -27.846292 -2.689218 2.964582 50.770943 4.267852 2.008129 -14.690971 -1.510637 7.655711 -13.361858 1.000619 -0.975242
17.266750 48.367138 47.824677 0.078082 20.968836 -0.074711 23.722403 0.959432 -18.192047 -1.349916 2.928276 -0.731802 11.270418 3.175670 -4.707407 22.721048 -10.045207 9.553175 -1.197472 -1.091798 -0.815460 7.288453 -20.497328 13.854450 -18.234161 10.066854 1.554359 -68.317238 -22.778690 0.932327 -49.428257 -63.092072 -37.696411 5.915454 -20.525139 16.354996 -10.867383 -9.476550 -11.699700 -6.235378 -4.996332 40.208641 15.657861 -14.593554 -2.278522 2.424352 16.803728 16.800308 13.691607 -0.017281 -17.194302 -46.219494 4.489190 14.575525 20.450680 -2.806269 6.746805 -14.205121 -22.441917 3.285513 -5.424226 -2.316197 0.865149 -29.048355 -2.864939 1.465967 52.935360 4.342657 2.241143 -14.106386 -0.993683 7.425057 -13.118705 0.632960 0.012218
17.475796 48.280216 48.450676 0.077879 19.916536 -0.074771 22.881731 2.474901 -19.226288 -1.446706 3.002479 -0.616440 11.202766 3.240769 -4.748573 22.694294 -10.379886 9.828604 -1.146786 -0.935698 -1.078036 7.144129 -21.125065 14.398418 -18.328526 10.293730 1.579273 -68.080330 -21.600031 0.805536 -49.599537 -62.939678 -37.268784 5.363015 -20.815096 16.326729 -11.098537 -9.625015 -11.529661 -6.283206 -4.906771 39.280552 15.853831 -15.695101 -2.428890 2.068958 16.735888 16.115507 12.866466 1.503054 -17.660490 -45.040562 4.503328 14.843911 21.413120 -3.220348 7.120399 -15.315385 -22.955194 3.420306 -5.521288 -2.532761 0.717140 -29.642469 -3.074165 0.012339 54.424892 4.352712 2.289066 -13.588612 -0.653296 7.424030 -12.140512 0.410912 0.657061
17.748804 48.174015 49.088947 0.079971 18.302408 -0.074048 22.035784 4.789467 -20.356354 -1.645072 2.944046 -0.630519 10.996347 3.322851 -4.636911 22.908426 -10.900148 9.869197 -1.114568 -1.002635 -0.913146 7.260110 -21.801857 14.517671 -18.233656 10.165979 1.729945 -67.431465 -19.942734 0.553968 -50.157425 -63.399334 -37.631546 4.598453 -21.048166 16.662596 -11.400184 -9.642791 -11.566881 -6.189581 -4.554431 39.031906 15.861496 -17.147562 -2.971196 1.951452 16.745939 15.594973 12.208714 3.843503 -18.459644 -43.962322 4.212415 14.926541 22.948818 -3.586628 7.730423 -16.696156 -23.290613 3.725128 -5.823624 -2.570837 0.610319 -30.594194 -3.388112 -1.643092 56.562984 4.364029 2.555087 -13.036964 -0.252602 7.895522 -11.281896 0.238478 1.585306
17.939144 48.063343 49.531773 0.083094 17.166164 -0.078640 21.308226 6.466878 -21.253967 -1.542569 2.987264 -0.600670 10.789541 3.502479 -4.496629 23.087214 -11.279155 10.020470 -1.053767 -0.974741 -1.008660 7.363091 -22.101460 14.713352 -18.301935 10.335630 1.779265 -67.360329 -19.070398 0.111304 -49.749771 -63.602097 -36.770977 4.037558 -21.272860 16.309237 -11.517738 -10.109750 -11.428031 -6.350285 -4.036208 38.511490 15.824102 -18.355165 -3.072371 1.921106 16.845472 15.055366 11.468446 5.579787 -19.069828 -43.097809 3.860405 15.030030 23.834522 -3.592293 7.946940 -17.565622 -23.627756 3.898919 -5.769805 -2.505090 0.492030 -30.729404 -3.306180 -2.743354 57.790363 4.248296 2.862516 -12.547853 -0.306955 8.297799 -10.598333 0.137706 2.186385
18.134575 48.053997 49.820583 0.075429 15.823116 -0.069544 20.499136 8.381409 -22.178194 -1.763357 3.042524 -0.501338 10.700770 3.645214 -4.407557 23.378693 -11.612717 9.934234 -1.059097 -1.174609 -0.767940 7.691564 -22.493937 14.668461 -18.444281 10.430405 2.147789 -66.809013 -18.079626 -0.376961 -49.454437 -63.648964 -36.511292 3.943908 -21.523710 16.472830 -11.684554 -10.173332 -11.394962 -6.279368 -3.339007 38.414654 15.971628 -19.804440 -3.303896 1.960062 16.978416 14.966699 10.750341 7.515919 -19.811720 -42.266724 3.633606 15.074144 24.854740 -3.842454 8.507225 -18.542246 -23.700676 3.835510 -5.866942 -2.469428 0.559783 -31.390100 -3.143389 -3.714666 59.258213 3.962484 3.197525 -11.845872 -0.151211 8.827542 -9.869086 -0.103847 3.003969
18.286560 47.978889 50.052696 0.071835 15.137522 -0.061676 19.929688 9.739372 -22.828419 -1.863730 2.931264 -0.467913 10.657116 3.750825 -4.354527 23.499826 -11.835789 9.950159 -0.912522 -1.054737 -0.884364 7.721289 -22.912512 14.889971 -18.506453 10.598223 2.382838 -66.737511 -17.372349 -0.713914 -50.394512 -63.827682 -37.183010 3.792794 -21.197939 16.162901 -11.766541 -10.370543 -11.207481 -6.257380 -2.825204 38.148300 16.023270 -20.275244 -3.199162 2.109693 16.907900 14.682716 10.089575 8.829476 -20.157682 -41.426369 3.465780 14.937105 25.336769 -3.789940 8.707126 -18.929655 -23.865725 3.914011 -5.931005 -2.602716 0.804250 -31.866737 -2.999737 -4.633705 60.243393 3.815546 3.404253 -10.886684 -0.378218 9.191917 -9.606972 -0.224205 3.651299
18.444311 47.901382 50.261250 0.083736 13.840377 -0.070129 19.061232 11.532028 -23.529732 -1.848593 2.991375 -0.446265 10.443858 3.776462 -4.256372 23.767178 -12.044336 9.931202 -1.015042 -0.995675 -0.898661 7.877273 -23.183924 14.744298 -18.443752 10.738850 2.768022 -66.640167 -16.641953 -1.214121 -50.337971 -63.783768 -37.570312 3.785026 -21.533424 16.210844 -11.814173 -10.422255 -11.271806 -6.225659 -2.424932 38.737206 16.359785 -21.024263 -3.825410 2.143742 17.032719 14.760432 9.338090 10.715543 -20.767910 -40.261093 3.254464 15.113748 25.604862 -4.094984 9.094429 -19.677275 -23.864548 3.845863 -5.792742 -2.563594 0.736763 -32.693893 -2.823531 -5.507628 61.749973 3.465887 3.665197 -9.883976 -0.629635 10.195021 -9.002462 -0.169345 4.146308
